# xmcd
#
# Track frame offsets:
#	150
#	13108
#	25133
#	39530
#	55510
#	71058
#	92490
#	109323
#	126208
#	142790
#	161333
#	178535
#	198483
#	214608
#	228620
#	246773
#	269998
#	289280
#	304365
#	319230
#	338775
#
# Disc length: 4732 seconds
#
# Revision: 1
# Processed by: cddbd v1.5.1PL0 Copyright (c) Steve Scherf et al.
# Submitted via: CDex 1.50Beta5
#
DISCID=39127a15
DTITLE=STAR CLUB,THE - ALL-TIME BEST!
DYEAR=1900
DGENRE=
TTITLE0=HELLO NEW PUNKS
TTITLE1=GO AHEAD
TTITLE2=POWER TO THE PUNKS
TTITLE3=ATTACK SONG
TTITLE4=地獄の季節
TTITLE5=GROUND ZERO
TTITLE6=RED ZONE
TTITLE7=ROCK'N' ROLL RIDER
TTITLE8=DEADLOCK STREET
TTITLE9=NOW AGAIN
TTITLE10=BEAT THE BOOTS
TTITLE11=SOLID FIST
TTITLE12=RISING SUN
TTITLE13=THE PUNK
TTITLE14=SILENT VIOLENCE
TTITLE15=ACTION-STREET
TTITLE16=10代の挑戦
TTITLE17=KAMIKAZE BOMBER
TTITLE18=ILLEGAL DIAL696
TTITLE19=SLASH WITH A KNIFE
TTITLE20=BLACKGUARD ANGEL
EXTD=
EXTT0=
EXTT1=
EXTT2=
EXTT3=
EXTT4=
EXTT5=
EXTT6=
EXTT7=
EXTT8=
EXTT9=
EXTT10=
EXTT11=
EXTT12=
EXTT13=
EXTT14=
EXTT15=
EXTT16=
EXTT17=
EXTT18=
EXTT19=
EXTT20=
PLAYORDER=
